<?xml version="1.0" encoding="UTF-8" standalone="no"?>
<!DOCTYPE svg PUBLIC "-//W3C//DTD SVG 1.1//EN" "http://www.w3.org/Graphics/SVG/1.1/DTD/svg11.dtd">
<svg width="100%" height="100%" viewBox="0 0 591 591" version="1.1" xmlns="http://www.w3.org/2000/svg" xmlns:xlink="http://www.w3.org/1999/xlink" xml:space="preserve" xmlns:serif="http://www.serif.com/" style="fill-rule:evenodd;clip-rule:evenodd;stroke-linecap:round;stroke-linejoin:round;stroke-miterlimit:1.5;">
    <g transform="matrix(1.24538,0,0,1.19832,-6.94988,-36.3015)">
        <path d="M212.579,306.801L32.018,306.801C23.162,306.801 15.982,299.339 15.982,290.135L15.982,263.268C15.982,254.064 23.162,246.603 32.018,246.603L212.579,246.603L212.579,66.672C212.579,62.252 214.268,58.013 217.275,54.888C220.283,51.762 224.362,50.006 228.615,50.006L256.741,50.006C260.994,50.006 265.073,51.762 268.08,54.888C271.087,58.013 272.777,62.252 272.777,66.672L272.777,246.603L453.337,246.603C462.194,246.603 469.373,254.064 469.373,263.268L469.373,290.135C469.373,299.339 462.194,306.801 453.337,306.801L272.777,306.801L272.777,486.732C272.777,491.152 271.087,495.391 268.08,498.516C265.073,501.641 260.994,503.397 256.741,503.397L228.615,503.397C224.362,503.397 220.283,501.641 217.275,498.516C214.268,495.391 212.579,491.152 212.579,486.732L212.579,306.801Z" style="stroke:white;stroke-width:0.82px;"/>
    </g>
</svg>
