<?xml version="1.0" encoding="UTF-8" standalone="no"?>
<!DOCTYPE svg PUBLIC "-//W3C//DTD SVG 1.1//EN" "http://www.w3.org/Graphics/SVG/1.1/DTD/svg11.dtd">
<svg width="100%" height="100%" viewBox="0 0 591 591" version="1.1" xmlns="http://www.w3.org/2000/svg" xmlns:xlink="http://www.w3.org/1999/xlink" xml:space="preserve" xmlns:serif="http://www.serif.com/" style="fill-rule:evenodd;clip-rule:evenodd;stroke-linejoin:round;stroke-miterlimit:2;">
    <g transform="matrix(1.09077,0,0,1.09077,-66.6454,-79.2016)">
        <path d="M367.66,98.274L381.827,151.614C399.42,156.205 416.298,163.196 431.984,172.39L479.719,144.69C498.993,159.043 516.075,176.125 530.428,195.399L502.729,243.134C511.923,258.82 518.914,275.698 523.505,293.291L576.844,307.458C580.324,331.236 580.324,355.394 576.844,379.172L523.505,393.339C518.914,410.932 511.923,427.809 502.729,443.496L530.428,491.23C516.075,510.504 498.993,527.586 479.719,541.939L431.984,514.24C416.298,523.434 399.42,530.425 381.827,535.016L367.66,588.356C343.882,591.835 319.725,591.835 295.947,588.356L281.78,535.016C264.187,530.425 247.309,523.434 231.622,514.24L183.888,541.939C164.614,527.586 147.532,510.504 133.179,491.23L160.878,443.496C151.684,427.809 144.693,410.932 140.102,393.339L86.763,379.172C83.283,355.394 83.283,331.236 86.763,307.458L140.102,293.291C144.693,275.698 151.684,258.82 160.878,243.134L133.179,195.399C147.532,176.125 164.614,159.043 183.888,144.69L231.622,172.39C247.309,163.196 264.187,156.205 281.78,151.614L295.947,98.274C319.725,94.795 343.882,94.795 367.66,98.274ZM331.803,219.49C400.144,219.49 455.629,274.974 455.629,343.315C455.629,411.656 400.144,467.14 331.803,467.14C263.462,467.14 207.978,411.656 207.978,343.315C207.978,274.974 263.462,219.49 331.803,219.49Z"/>
    </g>
</svg>
